<svg width="28" height="20" viewBox="0 0 28 20" fill="none" xmlns="http://www.w3.org/2000/svg">
<mask id="path-1-inside-1_2060_349" fill="white">
<path d="M0 0H28V20H0V0Z"/>
</mask>
<path d="M1 20V0H-1V20H1Z" fill="#B3B3B3" mask="url(#path-1-inside-1_2060_349)"/>
<path d="M25.5 17.5L20.5 12.5M22.1667 8.33333C22.1667 9.09938 22.0158 9.85792 21.7226 10.5657C21.4295 11.2734 20.9998 11.9164 20.4581 12.4581C19.9164 12.9998 19.2734 13.4295 18.5657 13.7226C17.8579 14.0158 17.0994 14.1667 16.3333 14.1667C15.5673 14.1667 14.8087 14.0158 14.101 13.7226C13.3933 13.4295 12.7502 12.9998 12.2085 12.4581C11.6669 11.9164 11.2372 11.2734 10.944 10.5657C10.6509 9.85792 10.5 9.09938 10.5 8.33333C10.5 6.78624 11.1146 5.30251 12.2085 4.20854C13.3025 3.11458 14.7862 2.5 16.3333 2.5C17.8804 2.5 19.3642 3.11458 20.4581 4.20854C21.5521 5.30251 22.1667 6.78624 22.1667 8.33333Z" stroke="#B3B3B3" stroke-width="2" stroke-linecap="round" stroke-linejoin="round"/>
</svg>
