<svg width="16" height="16" viewBox="0 0 16 16" fill="none" xmlns="http://www.w3.org/2000/svg">
<path d="M8.00004 2.99998V1.33331M8.00004 2.99998C7.55801 2.99998 7.13409 3.17557 6.82153 3.48813C6.50897 3.8007 6.33337 4.22462 6.33337 4.66665C6.33337 5.10867 6.50897 5.5326 6.82153 5.84516C7.13409 6.15772 7.55801 6.33331 8.00004 6.33331M8.00004 2.99998C8.44207 2.99998 8.86599 3.17557 9.17855 3.48813C9.49111 3.8007 9.66671 4.22462 9.66671 4.66665C9.66671 5.10867 9.49111 5.5326 9.17855 5.84516C8.86599 6.15772 8.44207 6.33331 8.00004 6.33331M8.00004 6.33331V14.6666M3.00004 13C3.44207 13 3.86599 12.8244 4.17855 12.5118C4.49111 12.1993 4.66671 11.7753 4.66671 11.3333C4.66671 10.8913 4.49111 10.4674 4.17855 10.1548C3.86599 9.84224 3.44207 9.66665 3.00004 9.66665M3.00004 13C2.55801 13 2.13409 12.8244 1.82153 12.5118C1.50897 12.1993 1.33337 11.7753 1.33337 11.3333C1.33337 10.8913 1.50897 10.4674 1.82153 10.1548C2.13409 9.84224 2.55801 9.66665 3.00004 9.66665M3.00004 13V14.6666M3.00004 9.66665V1.33331M13 13C13.4421 13 13.866 12.8244 14.1786 12.5118C14.4911 12.1993 14.6667 11.7753 14.6667 11.3333C14.6667 10.8913 14.4911 10.4674 14.1786 10.1548C13.866 9.84224 13.4421 9.66665 13 9.66665M13 13C12.558 13 12.1341 12.8244 11.8215 12.5118C11.509 12.1993 11.3334 11.7753 11.3334 11.3333C11.3334 10.8913 11.509 10.4674 11.8215 10.1548C12.1341 9.84224 12.558 9.66665 13 9.66665M13 13V14.6666M13 9.66665V1.33331" stroke="#FEFEFE" stroke-width="1.5" stroke-linecap="round" stroke-linejoin="round"/>
</svg>
